<mxfile host="Electron" modified="2023-12-21T22:37:08.847Z" agent="Mozilla/5.0 (Windows NT 10.0; Win64; x64) AppleWebKit/537.36 (KHTML, like Gecko) draw.io/22.1.11 Chrome/114.0.5735.289 Electron/25.9.8 Safari/537.36" etag="uwbXQwskVAm01hVvxSSz" version="22.1.11" type="device">
  <diagram name="Страница — 1" id="pFYDhxXLdyjuPuil33mV">
    <mxGraphModel dx="472" dy="835" grid="1" gridSize="10" guides="1" tooltips="1" connect="1" arrows="1" fold="1" page="1" pageScale="1" pageWidth="827" pageHeight="1169" math="0" shadow="0">
      <root>
        <mxCell id="0" />
        <mxCell id="1" parent="0" />
        <mxCell id="r4o31-9kBz0pcTyGA1zk-6" style="edgeStyle=orthogonalEdgeStyle;rounded=0;orthogonalLoop=1;jettySize=auto;html=1;exitX=0.5;exitY=1;exitDx=0;exitDy=0;entryX=0.5;entryY=0;entryDx=0;entryDy=0;" edge="1" parent="1" source="r4o31-9kBz0pcTyGA1zk-1" target="r4o31-9kBz0pcTyGA1zk-7">
          <mxGeometry relative="1" as="geometry">
            <mxPoint x="70" y="90" as="targetPoint" />
          </mxGeometry>
        </mxCell>
        <mxCell id="r4o31-9kBz0pcTyGA1zk-1" value="начало&lt;br&gt;max_minSO" style="rounded=1;whiteSpace=wrap;html=1;arcSize=50;" vertex="1" parent="1">
          <mxGeometry x="20" y="20" width="100" height="50" as="geometry" />
        </mxCell>
        <mxCell id="r4o31-9kBz0pcTyGA1zk-11" style="edgeStyle=orthogonalEdgeStyle;rounded=0;orthogonalLoop=1;jettySize=auto;html=1;exitX=1;exitY=0.5;exitDx=0;exitDy=0;" edge="1" parent="1" source="r4o31-9kBz0pcTyGA1zk-7" target="r4o31-9kBz0pcTyGA1zk-10">
          <mxGeometry relative="1" as="geometry" />
        </mxCell>
        <mxCell id="r4o31-9kBz0pcTyGA1zk-14" style="edgeStyle=orthogonalEdgeStyle;rounded=0;orthogonalLoop=1;jettySize=auto;html=1;exitX=0.5;exitY=1;exitDx=0;exitDy=0;entryX=0.5;entryY=0;entryDx=0;entryDy=0;" edge="1" parent="1" source="r4o31-9kBz0pcTyGA1zk-7" target="r4o31-9kBz0pcTyGA1zk-12">
          <mxGeometry relative="1" as="geometry" />
        </mxCell>
        <mxCell id="r4o31-9kBz0pcTyGA1zk-7" value="A[i]&amp;lt;max" style="rhombus;whiteSpace=wrap;html=1;" vertex="1" parent="1">
          <mxGeometry x="20" y="90" width="100" height="60" as="geometry" />
        </mxCell>
        <mxCell id="r4o31-9kBz0pcTyGA1zk-8" value="да" style="text;html=1;strokeColor=none;fillColor=none;align=center;verticalAlign=middle;whiteSpace=wrap;rounded=0;" vertex="1" parent="1">
          <mxGeometry x="93" y="90" width="60" height="30" as="geometry" />
        </mxCell>
        <mxCell id="r4o31-9kBz0pcTyGA1zk-9" value="нет" style="text;html=1;strokeColor=none;fillColor=none;align=center;verticalAlign=middle;whiteSpace=wrap;rounded=0;" vertex="1" parent="1">
          <mxGeometry x="60" y="140" width="60" height="30" as="geometry" />
        </mxCell>
        <mxCell id="r4o31-9kBz0pcTyGA1zk-15" style="edgeStyle=orthogonalEdgeStyle;rounded=0;orthogonalLoop=1;jettySize=auto;html=1;exitX=0.5;exitY=1;exitDx=0;exitDy=0;" edge="1" parent="1" source="r4o31-9kBz0pcTyGA1zk-10">
          <mxGeometry relative="1" as="geometry">
            <mxPoint x="70" y="220" as="targetPoint" />
            <Array as="points">
              <mxPoint x="170" y="220" />
            </Array>
          </mxGeometry>
        </mxCell>
        <mxCell id="r4o31-9kBz0pcTyGA1zk-10" value="&lt;div&gt;max=A[i]&lt;/div&gt;&lt;div&gt;&lt;span style=&quot;background-color: initial;&quot;&gt;maxn=i&lt;/span&gt;&lt;/div&gt;" style="rounded=0;whiteSpace=wrap;html=1;" vertex="1" parent="1">
          <mxGeometry x="120" y="150" width="100" height="50" as="geometry" />
        </mxCell>
        <mxCell id="r4o31-9kBz0pcTyGA1zk-12" value="конец" style="rounded=1;whiteSpace=wrap;html=1;arcSize=50;" vertex="1" parent="1">
          <mxGeometry x="20" y="250" width="100" height="50" as="geometry" />
        </mxCell>
        <mxCell id="r4o31-9kBz0pcTyGA1zk-16" style="edgeStyle=orthogonalEdgeStyle;rounded=0;orthogonalLoop=1;jettySize=auto;html=1;exitX=0.5;exitY=1;exitDx=0;exitDy=0;entryX=0.5;entryY=0;entryDx=0;entryDy=0;" edge="1" parent="1" source="r4o31-9kBz0pcTyGA1zk-17" target="r4o31-9kBz0pcTyGA1zk-20">
          <mxGeometry relative="1" as="geometry">
            <mxPoint x="290" y="90" as="targetPoint" />
          </mxGeometry>
        </mxCell>
        <mxCell id="r4o31-9kBz0pcTyGA1zk-17" value="начало&lt;br&gt;min_maxSO" style="rounded=1;whiteSpace=wrap;html=1;arcSize=50;" vertex="1" parent="1">
          <mxGeometry x="240" y="20" width="100" height="50" as="geometry" />
        </mxCell>
        <mxCell id="r4o31-9kBz0pcTyGA1zk-18" style="edgeStyle=orthogonalEdgeStyle;rounded=0;orthogonalLoop=1;jettySize=auto;html=1;exitX=1;exitY=0.5;exitDx=0;exitDy=0;" edge="1" parent="1" source="r4o31-9kBz0pcTyGA1zk-20" target="r4o31-9kBz0pcTyGA1zk-24">
          <mxGeometry relative="1" as="geometry" />
        </mxCell>
        <mxCell id="r4o31-9kBz0pcTyGA1zk-19" style="edgeStyle=orthogonalEdgeStyle;rounded=0;orthogonalLoop=1;jettySize=auto;html=1;exitX=0.5;exitY=1;exitDx=0;exitDy=0;entryX=0.5;entryY=0;entryDx=0;entryDy=0;" edge="1" parent="1" source="r4o31-9kBz0pcTyGA1zk-20" target="r4o31-9kBz0pcTyGA1zk-25">
          <mxGeometry relative="1" as="geometry" />
        </mxCell>
        <mxCell id="r4o31-9kBz0pcTyGA1zk-20" value="A[i]&amp;gt;max" style="rhombus;whiteSpace=wrap;html=1;" vertex="1" parent="1">
          <mxGeometry x="240" y="90" width="100" height="60" as="geometry" />
        </mxCell>
        <mxCell id="r4o31-9kBz0pcTyGA1zk-21" value="да" style="text;html=1;strokeColor=none;fillColor=none;align=center;verticalAlign=middle;whiteSpace=wrap;rounded=0;" vertex="1" parent="1">
          <mxGeometry x="313" y="90" width="60" height="30" as="geometry" />
        </mxCell>
        <mxCell id="r4o31-9kBz0pcTyGA1zk-22" value="нет" style="text;html=1;strokeColor=none;fillColor=none;align=center;verticalAlign=middle;whiteSpace=wrap;rounded=0;" vertex="1" parent="1">
          <mxGeometry x="280" y="140" width="60" height="30" as="geometry" />
        </mxCell>
        <mxCell id="r4o31-9kBz0pcTyGA1zk-23" style="edgeStyle=orthogonalEdgeStyle;rounded=0;orthogonalLoop=1;jettySize=auto;html=1;exitX=0.5;exitY=1;exitDx=0;exitDy=0;" edge="1" parent="1" source="r4o31-9kBz0pcTyGA1zk-24">
          <mxGeometry relative="1" as="geometry">
            <mxPoint x="290" y="220" as="targetPoint" />
            <Array as="points">
              <mxPoint x="390" y="220" />
            </Array>
          </mxGeometry>
        </mxCell>
        <mxCell id="r4o31-9kBz0pcTyGA1zk-24" value="&lt;div&gt;max=A[i]&lt;/div&gt;&lt;div&gt;&lt;span style=&quot;background-color: initial;&quot;&gt;maxn=i&lt;/span&gt;&lt;/div&gt;" style="rounded=0;whiteSpace=wrap;html=1;" vertex="1" parent="1">
          <mxGeometry x="340" y="150" width="100" height="50" as="geometry" />
        </mxCell>
        <mxCell id="r4o31-9kBz0pcTyGA1zk-25" value="конец" style="rounded=1;whiteSpace=wrap;html=1;arcSize=50;" vertex="1" parent="1">
          <mxGeometry x="240" y="250" width="100" height="50" as="geometry" />
        </mxCell>
        <mxCell id="r4o31-9kBz0pcTyGA1zk-30" style="edgeStyle=orthogonalEdgeStyle;rounded=0;orthogonalLoop=1;jettySize=auto;html=1;exitX=0.5;exitY=1;exitDx=0;exitDy=0;entryX=0.5;entryY=0;entryDx=0;entryDy=0;" edge="1" parent="1" source="r4o31-9kBz0pcTyGA1zk-26" target="r4o31-9kBz0pcTyGA1zk-27">
          <mxGeometry relative="1" as="geometry" />
        </mxCell>
        <mxCell id="r4o31-9kBz0pcTyGA1zk-26" value="начало&lt;br&gt;max_minSP" style="rounded=1;whiteSpace=wrap;html=1;arcSize=50;" vertex="1" parent="1">
          <mxGeometry x="20" y="320" width="100" height="50" as="geometry" />
        </mxCell>
        <mxCell id="r4o31-9kBz0pcTyGA1zk-32" style="edgeStyle=orthogonalEdgeStyle;rounded=0;orthogonalLoop=1;jettySize=auto;html=1;exitX=1;exitY=0.5;exitDx=0;exitDy=0;entryX=0.5;entryY=0;entryDx=0;entryDy=0;" edge="1" parent="1" source="r4o31-9kBz0pcTyGA1zk-27" target="r4o31-9kBz0pcTyGA1zk-31">
          <mxGeometry relative="1" as="geometry" />
        </mxCell>
        <mxCell id="r4o31-9kBz0pcTyGA1zk-37" style="edgeStyle=orthogonalEdgeStyle;rounded=0;orthogonalLoop=1;jettySize=auto;html=1;exitX=0.5;exitY=1;exitDx=0;exitDy=0;" edge="1" parent="1" source="r4o31-9kBz0pcTyGA1zk-27" target="r4o31-9kBz0pcTyGA1zk-35">
          <mxGeometry relative="1" as="geometry" />
        </mxCell>
        <mxCell id="r4o31-9kBz0pcTyGA1zk-27" value="(Child&amp;gt;n-1) &lt;br&gt;и&lt;br&gt;(A[Child]&amp;gt;&lt;br&gt;&amp;gt;A[Child+1])" style="rhombus;whiteSpace=wrap;html=1;" vertex="1" parent="1">
          <mxGeometry x="20" y="390" width="100" height="100" as="geometry" />
        </mxCell>
        <mxCell id="r4o31-9kBz0pcTyGA1zk-28" value="да" style="text;html=1;strokeColor=none;fillColor=none;align=center;verticalAlign=middle;whiteSpace=wrap;rounded=0;" vertex="1" parent="1">
          <mxGeometry x="93" y="400" width="60" height="30" as="geometry" />
        </mxCell>
        <mxCell id="r4o31-9kBz0pcTyGA1zk-29" value="нет" style="text;html=1;strokeColor=none;fillColor=none;align=center;verticalAlign=middle;whiteSpace=wrap;rounded=0;" vertex="1" parent="1">
          <mxGeometry x="60" y="470" width="60" height="30" as="geometry" />
        </mxCell>
        <mxCell id="r4o31-9kBz0pcTyGA1zk-47" style="edgeStyle=orthogonalEdgeStyle;rounded=0;orthogonalLoop=1;jettySize=auto;html=1;exitX=0.5;exitY=1;exitDx=0;exitDy=0;" edge="1" parent="1" source="r4o31-9kBz0pcTyGA1zk-31">
          <mxGeometry relative="1" as="geometry">
            <mxPoint x="70" y="560" as="targetPoint" />
            <Array as="points">
              <mxPoint x="170" y="560" />
            </Array>
          </mxGeometry>
        </mxCell>
        <mxCell id="r4o31-9kBz0pcTyGA1zk-31" value="Child=Child+1" style="rounded=0;whiteSpace=wrap;html=1;" vertex="1" parent="1">
          <mxGeometry x="120" y="490" width="100" height="50" as="geometry" />
        </mxCell>
        <mxCell id="r4o31-9kBz0pcTyGA1zk-43" style="edgeStyle=orthogonalEdgeStyle;rounded=0;orthogonalLoop=1;jettySize=auto;html=1;exitX=0.5;exitY=1;exitDx=0;exitDy=0;entryX=0.5;entryY=0;entryDx=0;entryDy=0;" edge="1" parent="1" source="r4o31-9kBz0pcTyGA1zk-35" target="r4o31-9kBz0pcTyGA1zk-40">
          <mxGeometry relative="1" as="geometry" />
        </mxCell>
        <mxCell id="r4o31-9kBz0pcTyGA1zk-35" value="breakk=0" style="rounded=0;whiteSpace=wrap;html=1;" vertex="1" parent="1">
          <mxGeometry x="20" y="580" width="100" height="50" as="geometry" />
        </mxCell>
        <mxCell id="r4o31-9kBz0pcTyGA1zk-45" style="edgeStyle=orthogonalEdgeStyle;rounded=0;orthogonalLoop=1;jettySize=auto;html=1;exitX=1;exitY=0.5;exitDx=0;exitDy=0;entryX=0.5;entryY=0;entryDx=0;entryDy=0;" edge="1" parent="1" source="r4o31-9kBz0pcTyGA1zk-40" target="r4o31-9kBz0pcTyGA1zk-44">
          <mxGeometry relative="1" as="geometry" />
        </mxCell>
        <mxCell id="r4o31-9kBz0pcTyGA1zk-50" style="edgeStyle=orthogonalEdgeStyle;rounded=0;orthogonalLoop=1;jettySize=auto;html=1;exitX=0.5;exitY=1;exitDx=0;exitDy=0;entryX=0.5;entryY=0;entryDx=0;entryDy=0;" edge="1" parent="1" source="r4o31-9kBz0pcTyGA1zk-40" target="r4o31-9kBz0pcTyGA1zk-48">
          <mxGeometry relative="1" as="geometry" />
        </mxCell>
        <mxCell id="r4o31-9kBz0pcTyGA1zk-40" value="Current≤&lt;br&gt;A[Child]" style="rhombus;whiteSpace=wrap;html=1;" vertex="1" parent="1">
          <mxGeometry x="20" y="670" width="100" height="60" as="geometry" />
        </mxCell>
        <mxCell id="r4o31-9kBz0pcTyGA1zk-41" value="да" style="text;html=1;strokeColor=none;fillColor=none;align=center;verticalAlign=middle;whiteSpace=wrap;rounded=0;" vertex="1" parent="1">
          <mxGeometry x="93" y="670" width="60" height="30" as="geometry" />
        </mxCell>
        <mxCell id="r4o31-9kBz0pcTyGA1zk-42" value="нет" style="text;html=1;strokeColor=none;fillColor=none;align=center;verticalAlign=middle;whiteSpace=wrap;rounded=0;" vertex="1" parent="1">
          <mxGeometry x="60" y="720" width="60" height="30" as="geometry" />
        </mxCell>
        <mxCell id="r4o31-9kBz0pcTyGA1zk-52" style="edgeStyle=orthogonalEdgeStyle;rounded=0;orthogonalLoop=1;jettySize=auto;html=1;exitX=0.5;exitY=1;exitDx=0;exitDy=0;" edge="1" parent="1" source="r4o31-9kBz0pcTyGA1zk-44">
          <mxGeometry relative="1" as="geometry">
            <mxPoint x="70" y="800" as="targetPoint" />
            <Array as="points">
              <mxPoint x="170" y="800" />
            </Array>
          </mxGeometry>
        </mxCell>
        <mxCell id="r4o31-9kBz0pcTyGA1zk-44" value="breakk=1" style="rounded=0;whiteSpace=wrap;html=1;" vertex="1" parent="1">
          <mxGeometry x="120" y="730" width="100" height="50" as="geometry" />
        </mxCell>
        <mxCell id="r4o31-9kBz0pcTyGA1zk-48" value="конец" style="rounded=1;whiteSpace=wrap;html=1;arcSize=50;" vertex="1" parent="1">
          <mxGeometry x="20" y="820" width="100" height="50" as="geometry" />
        </mxCell>
        <mxCell id="r4o31-9kBz0pcTyGA1zk-53" style="edgeStyle=orthogonalEdgeStyle;rounded=0;orthogonalLoop=1;jettySize=auto;html=1;exitX=0.5;exitY=1;exitDx=0;exitDy=0;entryX=0.5;entryY=0;entryDx=0;entryDy=0;" edge="1" parent="1" source="r4o31-9kBz0pcTyGA1zk-54" target="r4o31-9kBz0pcTyGA1zk-57">
          <mxGeometry relative="1" as="geometry" />
        </mxCell>
        <mxCell id="r4o31-9kBz0pcTyGA1zk-54" value="начало&lt;br&gt;min_maxSP" style="rounded=1;whiteSpace=wrap;html=1;arcSize=50;" vertex="1" parent="1">
          <mxGeometry x="240" y="320" width="100" height="50" as="geometry" />
        </mxCell>
        <mxCell id="r4o31-9kBz0pcTyGA1zk-55" style="edgeStyle=orthogonalEdgeStyle;rounded=0;orthogonalLoop=1;jettySize=auto;html=1;exitX=1;exitY=0.5;exitDx=0;exitDy=0;entryX=0.5;entryY=0;entryDx=0;entryDy=0;" edge="1" parent="1" source="r4o31-9kBz0pcTyGA1zk-57" target="r4o31-9kBz0pcTyGA1zk-61">
          <mxGeometry relative="1" as="geometry" />
        </mxCell>
        <mxCell id="r4o31-9kBz0pcTyGA1zk-56" style="edgeStyle=orthogonalEdgeStyle;rounded=0;orthogonalLoop=1;jettySize=auto;html=1;exitX=0.5;exitY=1;exitDx=0;exitDy=0;" edge="1" parent="1" source="r4o31-9kBz0pcTyGA1zk-57" target="r4o31-9kBz0pcTyGA1zk-63">
          <mxGeometry relative="1" as="geometry" />
        </mxCell>
        <mxCell id="r4o31-9kBz0pcTyGA1zk-57" value="(Child&amp;lt;n-1) &lt;br&gt;и&lt;br&gt;(A[Child]&amp;lt;&lt;br&gt;&amp;lt;A[Child+1])" style="rhombus;whiteSpace=wrap;html=1;" vertex="1" parent="1">
          <mxGeometry x="240" y="390" width="100" height="100" as="geometry" />
        </mxCell>
        <mxCell id="r4o31-9kBz0pcTyGA1zk-58" value="да" style="text;html=1;strokeColor=none;fillColor=none;align=center;verticalAlign=middle;whiteSpace=wrap;rounded=0;" vertex="1" parent="1">
          <mxGeometry x="313" y="400" width="60" height="30" as="geometry" />
        </mxCell>
        <mxCell id="r4o31-9kBz0pcTyGA1zk-59" value="нет" style="text;html=1;strokeColor=none;fillColor=none;align=center;verticalAlign=middle;whiteSpace=wrap;rounded=0;" vertex="1" parent="1">
          <mxGeometry x="280" y="470" width="60" height="30" as="geometry" />
        </mxCell>
        <mxCell id="r4o31-9kBz0pcTyGA1zk-60" style="edgeStyle=orthogonalEdgeStyle;rounded=0;orthogonalLoop=1;jettySize=auto;html=1;exitX=0.5;exitY=1;exitDx=0;exitDy=0;" edge="1" parent="1" source="r4o31-9kBz0pcTyGA1zk-61">
          <mxGeometry relative="1" as="geometry">
            <mxPoint x="290" y="560" as="targetPoint" />
            <Array as="points">
              <mxPoint x="390" y="560" />
            </Array>
          </mxGeometry>
        </mxCell>
        <mxCell id="r4o31-9kBz0pcTyGA1zk-61" value="Child=Child+1" style="rounded=0;whiteSpace=wrap;html=1;" vertex="1" parent="1">
          <mxGeometry x="340" y="490" width="100" height="50" as="geometry" />
        </mxCell>
        <mxCell id="r4o31-9kBz0pcTyGA1zk-62" style="edgeStyle=orthogonalEdgeStyle;rounded=0;orthogonalLoop=1;jettySize=auto;html=1;exitX=0.5;exitY=1;exitDx=0;exitDy=0;entryX=0.5;entryY=0;entryDx=0;entryDy=0;" edge="1" parent="1" source="r4o31-9kBz0pcTyGA1zk-63" target="r4o31-9kBz0pcTyGA1zk-66">
          <mxGeometry relative="1" as="geometry" />
        </mxCell>
        <mxCell id="r4o31-9kBz0pcTyGA1zk-63" value="breakk=0" style="rounded=0;whiteSpace=wrap;html=1;" vertex="1" parent="1">
          <mxGeometry x="240" y="580" width="100" height="50" as="geometry" />
        </mxCell>
        <mxCell id="r4o31-9kBz0pcTyGA1zk-64" style="edgeStyle=orthogonalEdgeStyle;rounded=0;orthogonalLoop=1;jettySize=auto;html=1;exitX=1;exitY=0.5;exitDx=0;exitDy=0;entryX=0.5;entryY=0;entryDx=0;entryDy=0;" edge="1" parent="1" source="r4o31-9kBz0pcTyGA1zk-66" target="r4o31-9kBz0pcTyGA1zk-70">
          <mxGeometry relative="1" as="geometry" />
        </mxCell>
        <mxCell id="r4o31-9kBz0pcTyGA1zk-65" style="edgeStyle=orthogonalEdgeStyle;rounded=0;orthogonalLoop=1;jettySize=auto;html=1;exitX=0.5;exitY=1;exitDx=0;exitDy=0;entryX=0.5;entryY=0;entryDx=0;entryDy=0;" edge="1" parent="1" source="r4o31-9kBz0pcTyGA1zk-66" target="r4o31-9kBz0pcTyGA1zk-71">
          <mxGeometry relative="1" as="geometry" />
        </mxCell>
        <mxCell id="r4o31-9kBz0pcTyGA1zk-66" value="Current≥&lt;br&gt;A[Child]" style="rhombus;whiteSpace=wrap;html=1;" vertex="1" parent="1">
          <mxGeometry x="240" y="670" width="100" height="60" as="geometry" />
        </mxCell>
        <mxCell id="r4o31-9kBz0pcTyGA1zk-67" value="да" style="text;html=1;strokeColor=none;fillColor=none;align=center;verticalAlign=middle;whiteSpace=wrap;rounded=0;" vertex="1" parent="1">
          <mxGeometry x="313" y="670" width="60" height="30" as="geometry" />
        </mxCell>
        <mxCell id="r4o31-9kBz0pcTyGA1zk-68" value="нет" style="text;html=1;strokeColor=none;fillColor=none;align=center;verticalAlign=middle;whiteSpace=wrap;rounded=0;" vertex="1" parent="1">
          <mxGeometry x="280" y="720" width="60" height="30" as="geometry" />
        </mxCell>
        <mxCell id="r4o31-9kBz0pcTyGA1zk-69" style="edgeStyle=orthogonalEdgeStyle;rounded=0;orthogonalLoop=1;jettySize=auto;html=1;exitX=0.5;exitY=1;exitDx=0;exitDy=0;" edge="1" parent="1" source="r4o31-9kBz0pcTyGA1zk-70">
          <mxGeometry relative="1" as="geometry">
            <mxPoint x="290" y="800" as="targetPoint" />
            <Array as="points">
              <mxPoint x="390" y="800" />
            </Array>
          </mxGeometry>
        </mxCell>
        <mxCell id="r4o31-9kBz0pcTyGA1zk-70" value="breakk=1" style="rounded=0;whiteSpace=wrap;html=1;" vertex="1" parent="1">
          <mxGeometry x="340" y="730" width="100" height="50" as="geometry" />
        </mxCell>
        <mxCell id="r4o31-9kBz0pcTyGA1zk-71" value="конец" style="rounded=1;whiteSpace=wrap;html=1;arcSize=50;" vertex="1" parent="1">
          <mxGeometry x="240" y="820" width="100" height="50" as="geometry" />
        </mxCell>
      </root>
    </mxGraphModel>
  </diagram>
</mxfile>
